<svg width="54" height="90" viewBox="0 0 54 90" fill="none" xmlns="http://www.w3.org/2000/svg">
<path d="M53.9596 12.5032C53.8991 11.7691 53.4099 6.96471 49.5164 6.20448C45.6985 5.45992 42.7834 5.20912 35.5133 7.46108C33.6548 8.03844 31.993 8.61318 30.2934 9.27414C29.7663 7.29388 29.3603 5.6245 29.2721 4.87472C28.9972 2.50259 29.7739 2.21783 29.1813 0.699977C28.7652 -0.363303 27.2547 -0.0968299 26.7075 0.699977C26.1603 1.49678 26.3418 2.40854 26.7075 4.40186C26.9294 5.60883 27.4993 8.05411 28.0793 10.2355C27.2244 10.6483 26.3469 11.129 25.4264 11.709C24.2009 12.4797 22.7307 13.4306 21.0916 14.8361C19.9518 11.2466 19.1978 9.24279 19.1978 9.24279C19.1978 9.24279 17.4024 2.99374 16.724 2.31449C16.1869 1.77632 15.6044 1.95919 15.0748 2.22044C14.2225 2.64105 13.9753 4.37313 14.984 7.34613C14.984 7.34613 16.4214 11.4164 18.2875 17.5662C15.7456 20.3563 12.954 24.3455 10.1297 30.3098C5.47212 40.1484 10.0112 28.9278 18.9179 19.6692C22.0423 30.2289 25.9863 45.5772 26.594 57.5215C27.6859 78.0059 22.9526 84.686 20.789 86.4547C18.9759 87.936 14.7999 89.1482 9.69347 84.8532C6.6422 82.2878 0.960773 73.2878 0 72.3604C0 72.3604 0.60269 76.5717 7.42645 84.7801C8.89661 86.5487 12.2354 89.9528 18.0983 89.9998C23.9613 90.0469 27.3959 80.9842 27.6254 79.8921C27.8549 78.8001 32.4519 67.2268 28.6341 45.6817C26.4755 33.4971 23.7243 23.3972 21.7498 16.9444C23.3788 15.5023 25.1163 14.1778 26.9395 13.0831C27.5043 12.7435 28.0591 12.4248 28.6038 12.1191C28.7929 12.767 28.972 13.3287 29.1258 13.7441C29.8596 15.7374 32.2048 23.8988 32.7798 25.3696C33.3547 26.8405 35.4175 33.8106 35.5259 34.2103C36.1589 36.5563 40.3827 53.8379 40.3827 53.8379C40.3827 53.8379 39.7851 42.9961 36.3959 31.6814C35.478 28.6143 33.6952 21.8585 33.3623 20.3406C33.1656 19.4341 31.8467 14.9537 30.7574 10.9775C42.3522 5.16471 49.4735 6.91246 49.4735 6.91246C49.4735 6.91246 52.6559 7.19722 53.6873 12.558C54.0101 14.2405 53.183 20.6254 53.183 20.6254C53.183 20.6254 54.2118 15.4945 53.9596 12.5032Z" fill="black"/>
</svg>
