<?xml version="1.0" encoding="UTF-8"?>
<svg id="Layer_1" data-name="Layer 1" xmlns="http://www.w3.org/2000/svg" version="1.1" viewBox="0 0 84 90.1">
  <defs>
    <style>
      .cls-1 {
        fill: #fff;
        stroke-width: 0px;
      }
    </style>
  </defs>
  <path class="cls-1" d="M52.8,30H7.2c-4,0-7.2,3.2-7.2,7.2v45.7c0,3.9,3.2,7.2,7.2,7.2h45.7c3.9,0,7.2-3.2,7.2-7.2v-45.7c0-4-3.3-7.2-7.3-7.2ZM54,82.8c0,.6-.5,1.1-1.1,1.1H7.2c-.6,0-1.1-.5-1.1-1.1v-45.6c0-.6.5-1.1,1.1-1.1h45.7c.6,0,1.1.5,1.1,1.1v45.6Z"/>
  <path class="cls-1" d="M76.8,0H31.2c-4,0-7.2,3.2-7.2,7.2v16.8h6V7.2c0-.6.5-1.1,1.1-1.1h45.7c.6,0,1.1.5,1.1,1.1v45.7c0,.6-.5,1.1-1.1,1.1h-10.8v6h10.8c3.9,0,7.2-3.2,7.2-7.2V7.2c0-4-3.2-7.2-7.2-7.2Z"/>
</svg>