<?xml version="1.0" encoding="UTF-8"?>
<svg id="Layer_1" data-name="Layer 1" xmlns="http://www.w3.org/2000/svg" version="1.1" viewBox="0 0 43 38">
  <defs>
    <style>
      .cls-1 {
        fill: #000;
        stroke-width: 0px;
      }
    </style>
  </defs>
  <path class="cls-1" d="M1.7,3.5h39.5c1,0,1.7-.8,1.7-1.7s-.8-1.7-1.7-1.7H1.7C.8,0,0,.8,0,1.7s.8,1.7,1.7,1.7Z"/>
  <path class="cls-1" d="M1.7,20.7h39.5c1,0,1.7-.8,1.7-1.7s-.8-1.7-1.7-1.7H1.7c-1,0-1.7.8-1.7,1.7s.8,1.7,1.7,1.7Z"/>
  <path class="cls-1" d="M1.7,38h39.5c1,0,1.7-.8,1.7-1.7s-.8-1.7-1.7-1.7H1.7c-1,0-1.7.8-1.7,1.7s.8,1.7,1.7,1.7Z"/>
</svg>